<?xml version="1.0" encoding="UTF-8"?>
<svg xmlns="http://www.w3.org/2000/svg" xmlns:xlink="http://www.w3.org/1999/xlink" width="48px" height="48px" viewBox="0 0 48 48" version="1.1">
<g id="surface1">
<path style=" stroke:none;fill-rule:nonzero;fill:rgb(27.450982%,29.411766%,84.705883%);fill-opacity:1;" d="M 32.632812 19.292969 C 23.375 17.265625 30.964844 4.425781 18.28125 5.488281 C 5.597656 6.554688 -6.429688 35.761719 16.085938 42.601562 C 38.605469 49.4375 50.207031 23.152344 32.632812 19.292969 Z M 32.632812 19.292969 "/>
<path style=" stroke:none;fill-rule:nonzero;fill:rgb(18.039216%,18.039216%,25.882354%);fill-opacity:1;" d="M 18.347656 11.042969 L 13.726562 34.570312 L 13.726562 11.042969 Z M 19.078125 11.042969 L 14.242188 35.671875 L 13.726562 35.570312 L 13.726562 34.570312 L 18.347656 11.042969 Z M 19.078125 11.042969 "/>
<path style=" stroke:none;fill-rule:nonzero;fill:rgb(17.647059%,17.647059%,25.490198%);fill-opacity:1;" d="M 19.738281 11.042969 L 19.804688 11.058594 L 14.945312 35.8125 L 14.242188 35.671875 L 19.078125 11.042969 Z M 19.738281 11.042969 "/>
<path style=" stroke:none;fill-rule:nonzero;fill:rgb(17.647059%,17.647059%,25.098041%);fill-opacity:1;" d="M 14.945312 35.8125 L 19.808594 11.0625 L 20.511719 11.199219 L 15.648438 35.949219 Z M 14.945312 35.8125 "/>
<path style=" stroke:none;fill-rule:nonzero;fill:rgb(17.254902%,17.254902%,24.705882%);fill-opacity:1;" d="M 15.644531 35.949219 L 20.511719 11.199219 L 21.214844 11.339844 L 16.351562 36.089844 Z M 15.644531 35.949219 "/>
<path style=" stroke:none;fill-rule:nonzero;fill:rgb(16.862746%,16.862746%,24.313726%);fill-opacity:1;" d="M 16.351562 36.089844 L 21.214844 11.339844 L 21.917969 11.476562 L 17.054688 36.226562 Z M 16.351562 36.089844 "/>
<path style=" stroke:none;fill-rule:nonzero;fill:rgb(16.470589%,16.470589%,23.921569%);fill-opacity:1;" d="M 17.054688 36.226562 L 21.917969 11.476562 L 22.621094 11.617188 L 17.757812 36.367188 Z M 17.054688 36.226562 "/>
<path style=" stroke:none;fill-rule:nonzero;fill:rgb(16.470589%,16.470589%,23.529412%);fill-opacity:1;" d="M 17.757812 36.367188 L 22.621094 11.617188 L 23.328125 11.753906 L 18.464844 36.503906 Z M 17.757812 36.367188 "/>
<path style=" stroke:none;fill-rule:nonzero;fill:rgb(16.078432%,16.078432%,23.137255%);fill-opacity:1;" d="M 18.460938 36.503906 L 23.324219 11.753906 L 24.027344 11.894531 L 19.164062 36.644531 Z M 18.460938 36.503906 "/>
<path style=" stroke:none;fill-rule:nonzero;fill:rgb(15.686275%,15.686275%,22.745098%);fill-opacity:1;" d="M 19.160156 36.644531 L 24.023438 11.894531 L 24.730469 12.03125 L 19.867188 36.78125 Z M 19.160156 36.644531 "/>
<path style=" stroke:none;fill-rule:nonzero;fill:rgb(15.686275%,15.686275%,22.352941%);fill-opacity:1;" d="M 19.867188 36.777344 L 24.730469 12.027344 L 25.433594 12.164062 L 20.570312 36.914062 Z M 19.867188 36.777344 "/>
<path style=" stroke:none;fill-rule:nonzero;fill:rgb(15.294118%,15.294118%,21.960784%);fill-opacity:1;" d="M 20.570312 36.914062 L 25.433594 12.164062 L 26.136719 12.304688 L 21.273438 37.054688 Z M 20.570312 36.914062 "/>
<path style=" stroke:none;fill-rule:nonzero;fill:rgb(14.901961%,14.901961%,21.568628%);fill-opacity:1;" d="M 21.273438 37.054688 L 26.136719 12.304688 L 26.84375 12.441406 L 21.980469 37.191406 Z M 21.273438 37.054688 "/>
<path style=" stroke:none;fill-rule:nonzero;fill:rgb(14.509805%,14.509805%,21.176471%);fill-opacity:1;" d="M 21.976562 37.191406 L 26.839844 12.441406 L 27.542969 12.582031 L 22.679688 37.332031 Z M 21.976562 37.191406 "/>
<path style=" stroke:none;fill-rule:nonzero;fill:rgb(14.509805%,14.509805%,20.392157%);fill-opacity:1;" d="M 22.683594 37.332031 L 27.546875 12.582031 L 28.25 12.71875 L 23.386719 37.46875 Z M 22.683594 37.332031 "/>
<path style=" stroke:none;fill-rule:nonzero;fill:rgb(14.117648%,14.117648%,20%);fill-opacity:1;" d="M 23.382812 37.46875 L 28.246094 12.71875 L 28.949219 12.859375 L 24.085938 37.609375 Z M 23.382812 37.46875 "/>
<path style=" stroke:none;fill-rule:nonzero;fill:rgb(13.725491%,13.725491%,19.607843%);fill-opacity:1;" d="M 24.089844 37.609375 L 28.953125 12.859375 L 29.65625 12.996094 L 24.792969 37.746094 Z M 24.089844 37.609375 "/>
<path style=" stroke:none;fill-rule:nonzero;fill:rgb(13.333334%,13.333334%,19.215687%);fill-opacity:1;" d="M 24.789062 37.746094 L 29.652344 12.996094 L 30.359375 13.136719 L 25.492188 37.886719 Z M 24.789062 37.746094 "/>
<path style=" stroke:none;fill-rule:nonzero;fill:rgb(13.333334%,13.333334%,18.82353%);fill-opacity:1;" d="M 25.496094 37.886719 L 30.359375 13.136719 L 31.0625 13.273438 L 26.199219 38.023438 Z M 25.496094 37.886719 "/>
<path style=" stroke:none;fill-rule:nonzero;fill:rgb(12.941177%,12.941177%,18.431373%);fill-opacity:1;" d="M 26.199219 38.023438 L 31.0625 13.273438 L 31.765625 13.414062 L 26.902344 38.164062 Z M 26.199219 38.023438 "/>
<path style=" stroke:none;fill-rule:nonzero;fill:rgb(12.54902%,12.54902%,18.039216%);fill-opacity:1;" d="M 26.902344 38.164062 L 31.765625 13.414062 L 32.46875 13.550781 L 27.605469 38.300781 Z M 26.902344 38.164062 "/>
<path style=" stroke:none;fill-rule:nonzero;fill:rgb(12.54902%,12.54902%,17.647059%);fill-opacity:1;" d="M 27.605469 38.300781 L 32.46875 13.550781 L 33.171875 13.691406 L 28.308594 38.441406 Z M 27.605469 38.300781 "/>
<path style=" stroke:none;fill-rule:nonzero;fill:rgb(12.156863%,12.156863%,17.254902%);fill-opacity:1;" d="M 28.308594 38.441406 L 33.171875 13.691406 L 33.878906 13.828125 L 29.015625 38.578125 Z M 28.308594 38.441406 "/>
<path style=" stroke:none;fill-rule:nonzero;fill:rgb(11.764706%,11.764706%,16.862746%);fill-opacity:1;" d="M 29.011719 38.578125 L 33.875 13.828125 L 34.578125 13.96875 L 29.714844 38.71875 Z M 29.011719 38.578125 "/>
<path style=" stroke:none;fill-rule:nonzero;fill:rgb(11.372549%,11.372549%,16.470589%);fill-opacity:1;" d="M 29.71875 38.71875 L 34.582031 13.96875 L 35.285156 14.105469 L 30.421875 38.855469 Z M 29.71875 38.71875 "/>
<path style=" stroke:none;fill-rule:nonzero;fill:rgb(11.372549%,11.372549%,16.078432%);fill-opacity:1;" d="M 35.28125 14.101562 L 35.984375 14.234375 L 31.148438 38.863281 L 30.488281 38.863281 L 30.417969 38.851562 Z M 35.28125 14.101562 "/>
<path style=" stroke:none;fill-rule:nonzero;fill:rgb(10.980392%,10.980392%,15.686275%);fill-opacity:1;" d="M 35.984375 14.234375 L 36.5 14.339844 L 36.5 15.335938 L 31.878906 38.863281 L 31.148438 38.863281 Z M 31.878906 38.863281 L 36.5 15.335938 L 36.5 38.863281 Z M 31.878906 38.863281 "/>
<path style=" stroke:none;fill-rule:nonzero;fill:rgb(100%,100%,100%);fill-opacity:1;" d="M 30.28125 37.851562 C 30.207031 37.851562 30.132812 37.84375 30.054688 37.828125 L 15.664062 35 C 15.367188 34.941406 15.101562 34.773438 14.933594 34.515625 C 14.765625 34.261719 14.699219 33.953125 14.761719 33.652344 L 18.820312 12.980469 C 18.929688 12.441406 19.398438 12.050781 19.945312 12.050781 C 20.019531 12.050781 20.09375 12.0625 20.171875 12.074219 L 34.5625 14.902344 C 35.183594 15.023438 35.585938 15.628906 35.464844 16.246094 L 31.40625 36.917969 C 31.296875 37.460938 30.824219 37.851562 30.28125 37.851562 Z M 30.28125 37.851562 "/>
<path style=" stroke:none;fill-rule:nonzero;fill:rgb(100%,100%,100%);fill-opacity:1;" d="M 30.28125 37.851562 C 30.207031 37.851562 30.132812 37.84375 30.054688 37.828125 L 15.664062 35 C 15.367188 34.941406 15.101562 34.773438 14.933594 34.515625 C 14.765625 34.261719 14.699219 33.953125 14.761719 33.652344 L 18.820312 12.980469 C 18.929688 12.441406 19.398438 12.050781 19.945312 12.050781 C 20.019531 12.050781 20.09375 12.0625 20.171875 12.074219 L 34.5625 14.902344 C 35.183594 15.023438 35.585938 15.628906 35.464844 16.246094 L 31.40625 36.917969 C 31.296875 37.460938 30.824219 37.851562 30.28125 37.851562 Z M 30.28125 37.851562 "/>
<path style=" stroke:none;fill-rule:nonzero;fill:rgb(16.470589%,93.725491%,78.431374%);fill-opacity:1;" d="M 30.007812 37.203125 C 29.945312 37.203125 29.878906 37.199219 29.8125 37.1875 L 17.164062 34.703125 C 16.902344 34.648438 16.671875 34.5 16.523438 34.273438 C 16.375 34.050781 16.316406 33.78125 16.375 33.515625 L 19.941406 15.351562 C 20.035156 14.878906 20.445312 14.535156 20.929688 14.535156 C 20.996094 14.535156 21.0625 14.539062 21.125 14.554688 L 33.773438 17.039062 C 34.316406 17.148438 34.679688 17.675781 34.570312 18.226562 L 31.003906 36.390625 C 30.90625 36.863281 30.492188 37.203125 30.007812 37.203125 Z M 30.007812 37.203125 "/>
<path style=" stroke:none;fill-rule:nonzero;fill:rgb(31.764707%,30.19608%,87.450981%);fill-opacity:1;" d="M 31.613281 12.867188 C 31.679688 12.742188 31.734375 12.605469 31.761719 12.453125 C 31.929688 11.621094 31.382812 10.808594 30.546875 10.644531 L 26.3125 9.8125 C 25.476562 9.648438 24.664062 10.191406 24.5 11.023438 C 24.472656 11.171875 24.472656 11.3125 24.484375 11.453125 C 23.339844 11.3125 22.363281 11.664062 22.214844 12.445312 L 33.191406 14.675781 C 33.34375 13.925781 32.648438 13.195312 31.613281 12.867188 Z M 31.613281 12.867188 "/>
<path style=" stroke:none;fill-rule:nonzero;fill:rgb(16.078432%,16.078432%,22.745098%);fill-opacity:1;" d="M 33.191406 15.097656 C 33.164062 15.097656 33.136719 15.09375 33.109375 15.089844 L 22.132812 12.859375 C 21.910156 12.8125 21.765625 12.589844 21.804688 12.367188 C 21.976562 11.492188 22.867188 10.960938 24.085938 11 C 24.089844 10.984375 24.089844 10.964844 24.09375 10.941406 C 24.300781 9.882812 25.335938 9.1875 26.394531 9.394531 L 30.632812 10.226562 C 31.148438 10.332031 31.59375 10.625 31.882812 11.0625 C 32.175781 11.5 32.277344 12.019531 32.175781 12.53125 C 32.171875 12.558594 32.160156 12.585938 32.15625 12.617188 C 33.183594 13.082031 33.769531 13.921875 33.605469 14.757812 C 33.582031 14.863281 33.519531 14.960938 33.425781 15.023438 C 33.355469 15.074219 33.273438 15.097656 33.191406 15.097656 Z M 22.859375 12.15625 L 32.714844 14.15625 C 32.539062 13.796875 32.089844 13.457031 31.484375 13.265625 C 31.367188 13.226562 31.273438 13.140625 31.222656 13.027344 C 31.175781 12.914062 31.179688 12.78125 31.238281 12.675781 C 31.292969 12.5625 31.332031 12.46875 31.351562 12.378906 C 31.410156 12.085938 31.351562 11.789062 31.179688 11.539062 C 31.011719 11.292969 30.757812 11.117188 30.464844 11.0625 L 26.226562 10.226562 C 25.617188 10.109375 25.03125 10.503906 24.910156 11.113281 C 24.890625 11.203125 24.890625 11.300781 24.898438 11.421875 C 24.910156 11.550781 24.863281 11.671875 24.773438 11.761719 C 24.683594 11.851562 24.558594 11.886719 24.429688 11.875 C 23.75 11.785156 23.175781 11.898438 22.859375 12.15625 Z M 22.859375 12.15625 "/>
<path style=" stroke:none;fill-rule:nonzero;fill:rgb(100%,100%,100%);fill-opacity:1;" d="M 28.21875 12.632812 C 27.828125 12.558594 27.582031 12.183594 27.65625 11.792969 C 27.730469 11.40625 28.105469 11.15625 28.496094 11.230469 C 28.882812 11.304688 29.132812 11.679688 29.058594 12.070312 C 28.976562 12.460938 28.601562 12.707031 28.21875 12.632812 Z M 28.21875 12.632812 "/>
<path style=" stroke:none;fill-rule:nonzero;fill:rgb(31.764707%,30.19608%,87.450981%);fill-opacity:1;" d="M 25.804688 19.695312 L 32.875 21.152344 L 32.753906 21.75 L 25.683594 20.292969 Z M 20.089844 20.890625 L 32.410156 23.425781 L 32.285156 24.023438 L 19.96875 21.488281 Z M 19.621094 23.164062 L 31.941406 25.699219 L 31.816406 26.296875 L 19.496094 23.761719 Z M 19.152344 25.433594 L 31.472656 27.96875 L 31.347656 28.566406 L 19.03125 26.03125 Z M 18.683594 27.707031 L 31.003906 30.242188 L 30.878906 30.839844 L 18.5625 28.304688 Z M 18.1875 30.128906 L 27.03125 31.945312 L 26.90625 32.542969 L 18.066406 30.722656 Z M 18.1875 30.128906 "/>
</g>
</svg>
